Coordinates
version=1
nRows=5
nColumns=40
inDegrees=yes

Units are S.I. units (second, meters, Newtons, ...)
If the header above contains a line with 'inDegrees', this indicates whether rotational values are in degrees (yes) or radians (no).

endheader
time	pelvis_tilt	pelvis_list	pelvis_rotation	pelvis_tx	pelvis_ty	pelvis_tz	hip_flexion_r	hip_adduction_r	hip_rotation_r	knee_angle_r	knee_angle_r_beta	ankle_angle_r	subtalar_angle_r	mtp_angle_r	hip_flexion_l	hip_adduction_l	hip_rotation_l	knee_angle_l	knee_angle_l_beta	ankle_angle_l	subtalar_angle_l	mtp_angle_l	lumbar_extension	lumbar_bending	lumbar_rotation	arm_flex_r	arm_add_r	arm_rot_r	elbow_flex_r	pro_sup_r	wrist_flex_r	wrist_dev_r	arm_flex_l	arm_add_l	arm_rot_l	elbow_flex_l	pro_sup_l	wrist_flex_l	wrist_dev_l
      2.22000000	      2.91476536	     13.05284330	    -88.83009623	      0.22836954	      0.91940791	      1.08877899	     30.35907353	     -5.13112861	     -0.82386947	     45.97122785	      0.80234929	     10.11578911	      0.00000000	      0.00000000	     10.46590445	      9.09355919	      8.95526082	     -2.84861761	     -0.04971776	     -0.74979498	      0.00000000	      0.00000000	      9.36202454	     -5.89839209	     -0.98063649	      0.00000000	      0.00000000	      0.00000000	      0.00000000	      0.00000000	      0.00000000	      0.00000000	      0.00000000	      0.00000000	      0.00000000	      0.00000000	      0.00000000	      0.00000000	      0.00000000
      2.23000000	      2.67038400	     12.91567764	    -88.79853298	      0.22802753	      0.91946520	      1.09662627	     31.10698167	     -4.73110921	     -0.45720113	     44.26616592	      0.77259034	     10.73186331	      0.00000000	      0.00000000	      9.62929611	      8.78704738	      9.44510285	     -3.09149553	     -0.05395678	     -0.15998044	      0.00000000	      0.00000000	      9.14785096	     -5.64644506	     -0.88001158	      0.00000000	      0.00000000	      0.00000000	      0.00000000	      0.00000000	      0.00000000	      0.00000000	      0.00000000	      0.00000000	      0.00000000	      0.00000000	      0.00000000	      0.00000000	      0.00000000
      2.24000000	      2.58381950	     12.65410562	    -88.70140467	      0.22789787	      0.91960388	      1.10459080	     31.65532670	     -4.56825533	     -0.21037526	     42.47305184	      0.74129460	     10.93138692	      0.00000000	      0.00000000	      8.65502163	      8.66910761	      9.88615651	     -3.32182290	     -0.05797675	      0.20810634	      0.00000000	      0.00000000	      8.78648552	     -5.58186350	     -1.00786432	      0.00000000	      0.00000000	      0.00000000	      0.00000000	      0.00000000	      0.00000000	      0.00000000	      0.00000000	      0.00000000	      0.00000000	      0.00000000	      0.00000000	      0.00000000	      0.00000000
      2.25000000	      2.69325479	     12.73362644	    -88.61652572	      0.22796898	      0.91909494	      1.11211819	     32.67067740	     -4.65178286	      0.03069870	     40.80826319	      0.71223855	     11.02143782	      0.00000000	      0.00000000	      8.25029307	      8.81089298	      9.81143627	     -3.22071443	     -0.05621207	      0.40757917	      0.00000000	      0.00000000	      8.77747662	     -5.72316334	     -1.11913397	      0.00000000	      0.00000000	      0.00000000	      0.00000000	      0.00000000	      0.00000000	      0.00000000	      0.00000000	      0.00000000	      0.00000000	      0.00000000	      0.00000000	      0.00000000	      0.00000000
      2.26000000	      2.45205677	     12.52205935	    -88.59712209	      0.22746008	      0.91905349	      1.12014772	     33.16408349	     -4.18224601	      0.40900392	     38.81516183	      0.67745237	     10.96501785	      0.00000000	      0.00000000	      7.27135334	      8.47360962	     10.35777723	     -3.56569172	     -0.06223306	      1.00571536	      0.00000000	      0.00000000	      8.49917792	     -5.48544636	     -1.04426128	      0.00000000	      0.00000000	      0.00000000	      0.00000000	      0.00000000	      0.00000000	      0.00000000	      0.00000000	      0.00000000	      0.00000000	      0.00000000	      0.00000000	      0.00000000	      0.00000000
